<mxfile host="app.diagrams.net" agent="Mozilla/5.0 (Windows NT 10.0; Win64; x64) AppleWebKit/537.36 (KHTML, like Gecko) Chrome/128.0.0.0 Safari/537.36" version="24.7.16">
  <diagram id="C5RBs43oDa-KdzZeNtuy" name="Page-1">
    <mxGraphModel dx="1050" dy="2941" grid="1" gridSize="10" guides="1" tooltips="1" connect="1" arrows="1" fold="1" page="1" pageScale="1" pageWidth="827" pageHeight="1169" math="0" shadow="0">
      <root>
        <mxCell id="WIyWlLk6GJQsqaUBKTNV-0" />
        <mxCell id="WIyWlLk6GJQsqaUBKTNV-1" parent="WIyWlLk6GJQsqaUBKTNV-0" />
        <mxCell id="W2ag3Siar-q9MoTJTR3j-28" value="" style="edgeStyle=orthogonalEdgeStyle;rounded=0;orthogonalLoop=1;jettySize=auto;html=1;" edge="1" parent="WIyWlLk6GJQsqaUBKTNV-1" source="W2ag3Siar-q9MoTJTR3j-26" target="W2ag3Siar-q9MoTJTR3j-27">
          <mxGeometry relative="1" as="geometry" />
        </mxCell>
        <mxCell id="W2ag3Siar-q9MoTJTR3j-26" value="main함수 실행" style="rounded=1;whiteSpace=wrap;html=1;" vertex="1" parent="WIyWlLk6GJQsqaUBKTNV-1">
          <mxGeometry x="30" y="-1160" width="140" height="60" as="geometry" />
        </mxCell>
        <mxCell id="W2ag3Siar-q9MoTJTR3j-31" value="" style="edgeStyle=orthogonalEdgeStyle;rounded=0;orthogonalLoop=1;jettySize=auto;html=1;" edge="1" parent="WIyWlLk6GJQsqaUBKTNV-1" source="W2ag3Siar-q9MoTJTR3j-27">
          <mxGeometry relative="1" as="geometry">
            <mxPoint x="100" y="-910" as="targetPoint" />
          </mxGeometry>
        </mxCell>
        <mxCell id="W2ag3Siar-q9MoTJTR3j-27" value="1~6번 입력&lt;div&gt;switch~case&lt;/div&gt;" style="rounded=1;whiteSpace=wrap;html=1;" vertex="1" parent="WIyWlLk6GJQsqaUBKTNV-1">
          <mxGeometry x="40" y="-1020" width="120" height="60" as="geometry" />
        </mxCell>
        <mxCell id="W2ag3Siar-q9MoTJTR3j-37" value="" style="edgeStyle=orthogonalEdgeStyle;rounded=0;orthogonalLoop=1;jettySize=auto;html=1;" edge="1" parent="WIyWlLk6GJQsqaUBKTNV-1" source="W2ag3Siar-q9MoTJTR3j-32" target="W2ag3Siar-q9MoTJTR3j-36">
          <mxGeometry relative="1" as="geometry" />
        </mxCell>
        <mxCell id="W2ag3Siar-q9MoTJTR3j-38" value="올바른 정수입력" style="edgeLabel;html=1;align=center;verticalAlign=middle;resizable=0;points=[];" vertex="1" connectable="0" parent="W2ag3Siar-q9MoTJTR3j-37">
          <mxGeometry x="-0.03" y="-2" relative="1" as="geometry">
            <mxPoint as="offset" />
          </mxGeometry>
        </mxCell>
        <mxCell id="W2ag3Siar-q9MoTJTR3j-32" value="1) 번호 등록 (insert)&lt;div&gt;2) 번호 수정 (touch)&lt;/div&gt;&lt;div&gt;3) 번호 삭제 (delEntry)&lt;/div&gt;&lt;div&gt;4) 번호 검색 (search)&lt;/div&gt;&lt;div&gt;5) 전화번호부 출력 (list)&lt;/div&gt;&lt;div&gt;6) 종료&lt;/div&gt;" style="rounded=1;whiteSpace=wrap;html=1;" vertex="1" parent="WIyWlLk6GJQsqaUBKTNV-1">
          <mxGeometry x="30" y="-910" width="140" height="90" as="geometry" />
        </mxCell>
        <mxCell id="W2ag3Siar-q9MoTJTR3j-36" value="번호에 맞는 함수 실행" style="rounded=1;whiteSpace=wrap;html=1;" vertex="1" parent="WIyWlLk6GJQsqaUBKTNV-1">
          <mxGeometry x="30" y="-740" width="140" height="50" as="geometry" />
        </mxCell>
        <mxCell id="W2ag3Siar-q9MoTJTR3j-41" value="" style="endArrow=none;html=1;rounded=0;" edge="1" parent="WIyWlLk6GJQsqaUBKTNV-1">
          <mxGeometry width="50" height="50" relative="1" as="geometry">
            <mxPoint x="210" y="-800" as="sourcePoint" />
            <mxPoint x="210" y="-980" as="targetPoint" />
          </mxGeometry>
        </mxCell>
        <mxCell id="W2ag3Siar-q9MoTJTR3j-44" value="입력오류" style="edgeLabel;html=1;align=center;verticalAlign=middle;resizable=0;points=[];" vertex="1" connectable="0" parent="W2ag3Siar-q9MoTJTR3j-41">
          <mxGeometry x="0.0022" y="-2" relative="1" as="geometry">
            <mxPoint as="offset" />
          </mxGeometry>
        </mxCell>
        <mxCell id="W2ag3Siar-q9MoTJTR3j-42" value="" style="endArrow=classic;html=1;rounded=0;" edge="1" parent="WIyWlLk6GJQsqaUBKTNV-1">
          <mxGeometry width="50" height="50" relative="1" as="geometry">
            <mxPoint x="210" y="-980" as="sourcePoint" />
            <mxPoint x="160" y="-980" as="targetPoint" />
          </mxGeometry>
        </mxCell>
        <mxCell id="W2ag3Siar-q9MoTJTR3j-43" value="" style="endArrow=none;html=1;rounded=0;" edge="1" parent="WIyWlLk6GJQsqaUBKTNV-1">
          <mxGeometry width="50" height="50" relative="1" as="geometry">
            <mxPoint x="100" y="-800" as="sourcePoint" />
            <mxPoint x="210" y="-800" as="targetPoint" />
          </mxGeometry>
        </mxCell>
        <mxCell id="W2ag3Siar-q9MoTJTR3j-47" value="" style="edgeStyle=orthogonalEdgeStyle;rounded=0;orthogonalLoop=1;jettySize=auto;html=1;" edge="1" parent="WIyWlLk6GJQsqaUBKTNV-1" target="W2ag3Siar-q9MoTJTR3j-46">
          <mxGeometry relative="1" as="geometry">
            <mxPoint x="630" y="-1120" as="sourcePoint" />
          </mxGeometry>
        </mxCell>
        <mxCell id="W2ag3Siar-q9MoTJTR3j-49" value="" style="edgeStyle=orthogonalEdgeStyle;rounded=0;orthogonalLoop=1;jettySize=auto;html=1;" edge="1" parent="WIyWlLk6GJQsqaUBKTNV-1" source="W2ag3Siar-q9MoTJTR3j-46">
          <mxGeometry relative="1" as="geometry">
            <mxPoint x="630" y="-1030" as="targetPoint" />
          </mxGeometry>
        </mxCell>
        <mxCell id="W2ag3Siar-q9MoTJTR3j-46" value="&lt;div&gt;&lt;span style=&quot;background-color: initial;&quot;&gt;buf1, buf2 선언&lt;/span&gt;&lt;br&gt;&lt;/div&gt;" style="whiteSpace=wrap;html=1;rounded=1;" vertex="1" parent="WIyWlLk6GJQsqaUBKTNV-1">
          <mxGeometry x="570" y="-1090" width="120" height="30" as="geometry" />
        </mxCell>
        <mxCell id="W2ag3Siar-q9MoTJTR3j-52" value="" style="edgeStyle=orthogonalEdgeStyle;rounded=0;orthogonalLoop=1;jettySize=auto;html=1;" edge="1" parent="WIyWlLk6GJQsqaUBKTNV-1" source="W2ag3Siar-q9MoTJTR3j-50" target="W2ag3Siar-q9MoTJTR3j-51">
          <mxGeometry relative="1" as="geometry">
            <Array as="points">
              <mxPoint x="750" y="-985" />
              <mxPoint x="750" y="-985" />
            </Array>
          </mxGeometry>
        </mxCell>
        <mxCell id="W2ag3Siar-q9MoTJTR3j-57" value="&lt;b&gt;n&amp;lt;capacity&lt;/b&gt;" style="edgeLabel;html=1;align=center;verticalAlign=middle;resizable=0;points=[];" vertex="1" connectable="0" parent="W2ag3Siar-q9MoTJTR3j-52">
          <mxGeometry x="-0.0954" y="-1" relative="1" as="geometry">
            <mxPoint as="offset" />
          </mxGeometry>
        </mxCell>
        <mxCell id="W2ag3Siar-q9MoTJTR3j-55" value="" style="edgeStyle=orthogonalEdgeStyle;rounded=0;orthogonalLoop=1;jettySize=auto;html=1;" edge="1" parent="WIyWlLk6GJQsqaUBKTNV-1" source="W2ag3Siar-q9MoTJTR3j-50" target="W2ag3Siar-q9MoTJTR3j-54">
          <mxGeometry relative="1" as="geometry" />
        </mxCell>
        <mxCell id="W2ag3Siar-q9MoTJTR3j-56" value="&lt;b&gt;n&amp;gt;capacity&lt;/b&gt;" style="edgeLabel;html=1;align=center;verticalAlign=middle;resizable=0;points=[];" vertex="1" connectable="0" parent="W2ag3Siar-q9MoTJTR3j-55">
          <mxGeometry x="0.0033" y="-1" relative="1" as="geometry">
            <mxPoint as="offset" />
          </mxGeometry>
        </mxCell>
        <mxCell id="W2ag3Siar-q9MoTJTR3j-50" value="배열 공간확인&lt;div&gt;n / capacity&lt;/div&gt;" style="rhombus;whiteSpace=wrap;html=1;" vertex="1" parent="WIyWlLk6GJQsqaUBKTNV-1">
          <mxGeometry x="565" y="-1030" width="130" height="90" as="geometry" />
        </mxCell>
        <mxCell id="W2ag3Siar-q9MoTJTR3j-63" value="" style="edgeStyle=orthogonalEdgeStyle;rounded=0;orthogonalLoop=1;jettySize=auto;html=1;" edge="1" parent="WIyWlLk6GJQsqaUBKTNV-1" source="W2ag3Siar-q9MoTJTR3j-51" target="W2ag3Siar-q9MoTJTR3j-62">
          <mxGeometry relative="1" as="geometry" />
        </mxCell>
        <mxCell id="W2ag3Siar-q9MoTJTR3j-51" value="이름 / 번호 입력받기" style="whiteSpace=wrap;html=1;" vertex="1" parent="WIyWlLk6GJQsqaUBKTNV-1">
          <mxGeometry x="800" y="-1015" width="120" height="60" as="geometry" />
        </mxCell>
        <mxCell id="W2ag3Siar-q9MoTJTR3j-54" value="저장공간 2배" style="whiteSpace=wrap;html=1;" vertex="1" parent="WIyWlLk6GJQsqaUBKTNV-1">
          <mxGeometry x="330" y="-1015" width="120" height="60" as="geometry" />
        </mxCell>
        <mxCell id="W2ag3Siar-q9MoTJTR3j-58" value="" style="endArrow=none;html=1;rounded=0;" edge="1" parent="WIyWlLk6GJQsqaUBKTNV-1">
          <mxGeometry width="50" height="50" relative="1" as="geometry">
            <mxPoint x="400" y="-920" as="sourcePoint" />
            <mxPoint x="400" y="-955" as="targetPoint" />
          </mxGeometry>
        </mxCell>
        <mxCell id="W2ag3Siar-q9MoTJTR3j-60" value="" style="endArrow=none;html=1;rounded=0;" edge="1" parent="WIyWlLk6GJQsqaUBKTNV-1">
          <mxGeometry width="50" height="50" relative="1" as="geometry">
            <mxPoint x="400" y="-920" as="sourcePoint" />
            <mxPoint x="740" y="-920" as="targetPoint" />
          </mxGeometry>
        </mxCell>
        <mxCell id="W2ag3Siar-q9MoTJTR3j-61" value="" style="endArrow=classic;html=1;rounded=0;entryX=0;entryY=0.75;entryDx=0;entryDy=0;" edge="1" parent="WIyWlLk6GJQsqaUBKTNV-1" target="W2ag3Siar-q9MoTJTR3j-51">
          <mxGeometry width="50" height="50" relative="1" as="geometry">
            <mxPoint x="740" y="-920" as="sourcePoint" />
            <mxPoint x="740" y="-980" as="targetPoint" />
          </mxGeometry>
        </mxCell>
        <mxCell id="W2ag3Siar-q9MoTJTR3j-66" value="" style="edgeStyle=orthogonalEdgeStyle;rounded=0;orthogonalLoop=1;jettySize=auto;html=1;" edge="1" parent="WIyWlLk6GJQsqaUBKTNV-1" source="W2ag3Siar-q9MoTJTR3j-62" target="W2ag3Siar-q9MoTJTR3j-65">
          <mxGeometry relative="1" as="geometry" />
        </mxCell>
        <mxCell id="W2ag3Siar-q9MoTJTR3j-62" value="이름 / 번호 입력받기" style="whiteSpace=wrap;html=1;" vertex="1" parent="WIyWlLk6GJQsqaUBKTNV-1">
          <mxGeometry x="800" y="-875" width="120" height="60" as="geometry" />
        </mxCell>
        <mxCell id="W2ag3Siar-q9MoTJTR3j-64" value="insert함수" style="ellipse;whiteSpace=wrap;html=1;" vertex="1" parent="WIyWlLk6GJQsqaUBKTNV-1">
          <mxGeometry x="570" y="-1180" width="120" height="60" as="geometry" />
        </mxCell>
        <mxCell id="W2ag3Siar-q9MoTJTR3j-65" value="이름 / 번호 저장하기&lt;div&gt;-&amp;gt; saveload.c&lt;/div&gt;" style="whiteSpace=wrap;html=1;" vertex="1" parent="WIyWlLk6GJQsqaUBKTNV-1">
          <mxGeometry x="800" y="-770" width="120" height="60" as="geometry" />
        </mxCell>
      </root>
    </mxGraphModel>
  </diagram>
</mxfile>
